# xmcd
#
# Track frame offsets:
#	150
#	10401
#	22713
#	33477
#	44452
#	56837
#	69953
#	80907
#	97153
#	107221
#	121096
#	131947
#	141706
#	152759
#	167553
#	181050
#	193296
#
# Disc length: 2747 seconds
#
# Revision: 1
# Processed by: cddbd v1.5.2PL0 Copyright (c) Steve Scherf et al.
# Submitted via: audiograbber 1.83.01
#
DISCID=f50ab911
DTITLE=Tammy Wynette and George Jones - Duets
DYEAR=2008
DGENRE=Country
TTITLE0=Something to Brag About
TTITLE1=We Could
TTITLE2=Take Me
TTITLE3=We Loved It Away
TTITLE4=Crying Time
TTITLE5=Southern California
TTITLE6=Just Someone I Used to Know
TTITLE7=My Elusive Dreams
TTITLE8=After Closing Time
TTITLE9=Golden Ring
TTITLE10=Near You
TTITLE11=Did You Ever?
TTITLE12=After the Fire Is Gone
TTITLE13=When I Stop Dreaming
TTITLE14=We're Gonna Hold On
TTITLE15=Two Story House
TTITLE16=Old Fashioned Singing
EXTD=
EXTT0=
EXTT1=
EXTT2=
EXTT3=
EXTT4=
EXTT5=
EXTT6=
EXTT7=
EXTT8=
EXTT9=
EXTT10=
EXTT11=
EXTT12=
EXTT13=
EXTT14=
EXTT15=
EXTT16=
PLAYORDER=
